Coordinates
version=1
nRows=16
nColumns=22
inDegrees=yes

Units are S.I. units (second, meters, Newtons, ...)
If the header above contains a line with 'inDegrees', this indicates whether rotational values are in degrees (yes) or radians (no).

endheader
time	pelvis_tilt	pelvis_list	pelvis_rotation	pelvis_tx	pelvis_ty	pelvis_tz	hip_flexion_r	hip_adduction_r	hip_rotation_r	knee_angle_r	ankle_angle_r	subtalar_angle_r	hip_flexion_l	hip_adduction_l	hip_rotation_l	knee_angle_l	ankle_angle_l	subtalar_angle_l	lumbar_extension	lumbar_bending	lumbar_rotation
      0.01000000	     -8.18439735	     -0.21827888	     -9.83562760	     -1.11615434	      0.88515879	     -0.12477169	      8.96013152	     -2.31272915	      1.65002975	     -9.14114895	     12.76589939	     -1.17469341	      6.90711691	     -6.57347296	     -7.55976896	     -7.96538549	     12.39091228	      6.15129555	      3.06247314	      1.65495179	      7.79871329
      0.02000000	     -8.19005542	     -0.20929164	     -9.84835816	     -1.11623205	      0.88516100	     -0.12485490	      8.98492525	     -2.32541250	      1.62484205	     -9.15474380	     12.74538213	     -1.17795279	      6.90614424	     -6.56022340	     -7.57176765	     -7.94228440	     12.38294982	      6.15912040	      3.04875652	      1.64841387	      7.79945623
      0.03000000	     -8.19598170	     -0.20932705	     -9.85289789	     -1.11632532	      0.88516271	     -0.12494466	      8.99608405	     -2.32847300	      1.62167880	     -9.14723304	     12.74549836	     -1.17806218	      6.91451733	     -6.55861144	     -7.57414918	     -7.93419496	     12.38198367	      6.16018612	      3.02890062	      1.64951341	      7.79780983
      0.04000000	     -8.20780645	     -0.20124690	     -9.86230685	     -1.11640812	      0.88515754	     -0.12505194	      9.02417811	     -2.34055294	      1.60922956	     -9.15534581	     12.72389559	     -1.17750403	      6.92261971	     -6.54708978	     -7.59577311	     -7.91279465	     12.36191919	      6.17410567	      3.01875594	      1.65081187	      7.77849762
      0.05000000	     -8.21414397	     -0.20052145	     -9.86674435	     -1.11650199	      0.88515635	     -0.12514867	      9.03633970	     -2.34456681	      1.60668771	     -9.14790095	     12.72353195	     -1.17739115	      6.93171699	     -6.54492692	     -7.59745083	     -7.90455864	     12.36107528	      6.17620546	      2.99814994	      1.65507012	      7.77747120
      0.06000000	     -8.22024203	     -0.19861937	     -9.87322747	     -1.11658828	      0.88515439	     -0.12524783	      9.04971311	     -2.35017663	      1.60448781	     -9.14234671	     12.72113946	     -1.17722872	      6.93988359	     -6.54154506	     -7.59982895	     -7.89635536	     12.35967998	      6.17931320	      2.97872558	      1.66370686	      7.77388380
      0.07000000	     -8.25970838	     -0.18976253	     -9.89255952	     -1.11670747	      0.88510959	     -0.12532285	      9.12879502	     -2.35423140	      1.60874159	     -9.18449137	     12.67572412	     -1.16526469	      6.98322813	     -6.54038825	     -7.61679292	     -7.88525654	     12.32215271	      6.29131585	      2.99792251	      1.67514638	      7.77551903
      0.08000000	     -8.26385431	     -0.18678742	     -9.90244369	     -1.11678801	      0.88510824	     -0.12538963	      9.13965913	     -2.35920686	      1.60834571	     -9.17753559	     12.67721465	     -1.16514858	      6.99066203	     -6.53879378	     -7.61763218	     -7.88098105	     12.32503957	      6.29414377	      2.97857541	      1.68562749	      7.77003459
      0.09000000	     -8.28300213	     -0.20809876	     -9.93405662	     -1.11691219	      0.88507797	     -0.12538912	      9.18579422	     -2.32758144	      1.64270656	     -9.20962430	     12.66993199	     -1.15494384	      7.03658841	     -6.57850394	     -7.66543399	     -7.93596185	     12.38773502	      6.42892735	      2.96865250	      1.72945786	      7.77094585
      0.10000000	     -8.28542205	     -0.20292125	     -9.94908060	     -1.11697369	      0.88508129	     -0.12541877	      9.19540372	     -2.33321254	      1.64203240	     -9.20481722	     12.66885005	     -1.15503409	      7.04248413	     -6.57658011	     -7.66415518	     -7.93529835	     12.38823386	      6.43274837	      2.95274513	      1.74304500	      7.76601523
      0.11000000	     -8.30550739	     -0.22757027	    -10.00146720	     -1.11710737	      0.88505233	     -0.12533384	      9.24789970	     -2.29005383	      1.69565006	     -9.24313507	     12.64448308	     -1.15073400	      7.09456190	     -6.62833338	     -7.73528725	     -8.00915311	     12.45214322	      6.59012939	      2.94517488	      1.79256204	      7.79304273
      0.12000000	     -8.32098478	     -0.23218258	    -10.03945785	     -1.11722155	      0.88502428	     -0.12526911	      9.29155397	     -2.27297158	      1.73304040	     -9.27136271	     12.64242371	     -1.15344648	      7.13974258	     -6.65240246	     -7.76816408	     -8.06828929	     12.49296182	      6.72070390	      2.94020599	      1.82303449	      7.80248977
      0.13000000	     -8.32993561	     -0.24119975	    -10.08650870	     -1.11734013	      0.88500611	     -0.12515344	      9.32920376	     -2.24784987	      1.77219883	     -9.30138975	     12.63755314	     -1.15554758	      7.17529209	     -6.68340613	     -7.80263815	     -8.12695674	     12.53222568	      6.79490296	      2.92748594	      1.85656590	      7.81801650
      0.14000000	     -8.34171467	     -0.25050881	    -10.13730366	     -1.11746698	      0.88497921	     -0.12500305	      9.37279302	     -2.21903556	      1.82130222	     -9.33607705	     12.63664772	     -1.15923930	      7.22109146	     -6.71816788	     -7.83997427	     -8.20220139	     12.57939778	      6.86404342	      2.91939076	      1.89240295	      7.83882778
      0.15000000	     -8.35325509	     -0.26342677	    -10.19034954	     -1.11760480	      0.88495207	     -0.12481720	      9.41775925	     -2.18349134	      1.87248336	     -9.37448336	     12.63635326	     -1.16476756	      7.26960302	     -6.75904202	     -7.87049236	     -8.28456762	     12.62396041	      6.92081426	      2.91073469	      1.93349968	      7.86126317
      0.16000000	     -8.34299922	     -0.26414058	    -10.22887621	     -1.11771970	      0.88496104	     -0.12462271	      9.43182271	     -2.16690401	      1.90518975	     -9.39999171	     12.63391911	     -1.16597476	      7.28882523	     -6.77909995	     -7.84614928	     -8.34850188	     12.62718285	      6.93300939	      2.88310942	      1.95390226	      7.87651247
